<?xml version="1.0" standalone="no"?>
<!DOCTYPE svg PUBLIC "-//W3C//DTD SVG 20010904//EN"
 "http://www.w3.org/TR/2001/REC-SVG-20010904/DTD/svg10.dtd">
<svg version="1.0" xmlns="http://www.w3.org/2000/svg"
 width="288.000000pt" height="288.000000pt" viewBox="0 0 288.000000 288.000000"
 preserveAspectRatio="xMidYMid meet">
<metadata>
Created by potrace 1.14, written by Peter Selinger 2001-2017
</metadata>
<g transform="translate(0.000000,288.000000) scale(0.100000,-0.100000)"
fill="#000000" stroke="none">
<path d="M0 1440 l0 -1440 1440 0 1440 0 0 1440 0 1440 -1440 0 -1440 0 0
-1440z m1107 848 c-3 -7 -5 -2 -5 12 0 14 2 19 5 13 2 -7 2 -19 0 -25z m680 0
c-3 -7 -5 -2 -5 12 0 14 2 19 5 13 2 -7 2 -19 0 -25z m-663 -68 c47 -68 217
-235 229 -224 3 3 4 -5 1 -18 -2 -12 -2 -17 2 -10 3 6 10 12 16 12 6 0 6 -6
-2 -15 -7 -8 -16 -13 -20 -10 -12 7 -120 -117 -120 -139 0 -13 77 -5 98 10 12
8 55 19 95 24 l72 8 39 -41 c77 -83 137 -170 124 -179 -10 -6 -10 -8 1 -8 8 0
23 -8 34 -17 18 -16 -58 101 -90 138 -17 21 -17 60 2 85 15 18 15 18 8 0 -4
-13 -3 -17 5 -12 6 3 13 2 17 -4 3 -5 1 -10 -5 -10 -6 0 -8 -5 -5 -10 4 -6 11
-8 16 -5 5 3 6 -1 3 -9 -4 -9 1 -18 10 -22 9 -3 16 -11 16 -16 0 -6 15 -45 34
-87 18 -42 36 -85 40 -96 5 -15 17 5 47 80 40 99 68 146 56 95 -3 -14 -15 -83
-27 -155 -11 -71 -29 -157 -39 -190 l-18 -60 -11 55 c-6 30 -16 82 -21 115
l-10 60 5 -60 c4 -54 53 -344 73 -438 5 -21 4 -40 -1 -43 -5 -3 -8 -11 -7 -17
1 -7 1 -21 0 -32 -1 -14 -4 -16 -9 -7 -6 9 -12 6 -21 -12 -8 -13 -28 -32 -47
-42 -18 -10 -31 -21 -29 -24 2 -3 -1 -12 -7 -20 -8 -12 -9 -12 -4 3 3 9 1 17
-5 17 -6 0 -7 5 -3 11 4 8 -1 9 -16 4 -15 -5 -20 -4 -16 4 4 6 1 11 -6 11 -14
0 -48 46 -69 93 -7 15 -17 27 -22 27 -5 0 -2 -11 7 -24 9 -14 13 -33 10 -43
-5 -15 -4 -16 6 -3 10 13 11 12 6 -3 -4 -12 -2 -16 6 -11 7 4 8 3 4 -5 -10
-16 -37 6 -35 28 2 28 -1 36 -10 23 -11 -17 -50 77 -58 139 -4 37 -2 47 11 52
12 5 16 1 16 -15 0 -12 3 -19 6 -15 4 3 3 18 0 34 -6 21 -9 24 -17 12 -7 -12
-9 -11 -9 4 0 9 5 17 11 17 5 0 7 5 4 10 -10 15 -25 2 -26 -23 -1 -12 -5 -4
-9 18 -5 24 -4 45 2 53 7 8 7 12 -1 12 -6 0 -11 5 -11 10 0 6 8 5 20 -2 10 -7
15 -15 10 -18 -5 -3 -5 -11 0 -20 8 -13 10 -12 10 3 0 12 5 16 13 11 6 -4 -2
8 -19 27 -17 19 -37 43 -43 54 l-13 20 6 -20 c6 -20 6 -20 -9 -1 -14 18 -12
21 23 38 33 16 34 18 10 14 -16 -2 -28 1 -28 5 0 5 -9 4 -20 -3 -16 -10 -23
-9 -44 11 -14 13 -23 27 -21 32 3 4 0 11 -6 15 -8 5 -9 3 -4 -7 4 -8 -1 -5
-12 6 -11 11 -18 24 -15 29 3 5 0 6 -6 2 -9 -5 -9 -13 -1 -28 8 -15 8 -19 0
-14 -6 4 -11 0 -11 -9 0 -9 4 -14 9 -10 5 3 12 1 16 -5 4 -6 10 -8 15 -5 4 3
10 -1 12 -8 7 -17 -21 -79 -32 -72 -10 6 -2 35 10 35 15 0 19 28 5 34 -10 3
-12 0 -8 -11 4 -11 2 -14 -5 -9 -8 4 -12 0 -13 -11 0 -10 -3 -13 -5 -6 -3 7 0
22 7 35 11 21 11 22 -4 9 -15 -12 -17 -9 -17 28 0 23 7 55 15 70 8 16 12 31
10 33 -3 3 6 15 20 28 27 25 32 25 190 -6 24 -5 28 -4 18 6 -7 7 -23 14 -35
16 -13 1 -30 3 -38 4 -13 1 -13 2 0 7 8 4 -3 11 -30 19 -54 16 -73 17 -65 4 3
-5 0 -7 -8 -4 -8 3 -25 -8 -40 -25 -16 -19 -27 -26 -30 -18 -2 6 -8 -32 -12
-85 -7 -94 -6 -100 20 -153 l26 -55 -40 -151 c-23 -83 -41 -157 -41 -165 0 -8
-4 -14 -9 -14 -5 0 -12 -8 -14 -17 -2 -10 -2 -4 0 14 2 18 -2 37 -10 45 -7 7
-12 18 -10 25 2 6 -1 14 -6 18 -6 3 -11 15 -11 26 0 11 -9 48 -20 82 -38 120
-128 572 -116 585 6 5 47 -77 71 -140 17 -45 35 -63 35 -35 0 6 7 25 15 40 8
15 16 36 17 45 2 9 7 20 11 23 8 6 14 25 17 59 1 8 4 10 6 5 2 -6 22 -9 44 -7
38 4 41 2 55 -32 9 -20 12 -42 8 -49 -4 -7 12 5 35 25 46 41 47 41 157 -5 33
-13 76 -28 95 -31 l35 -7 -33 15 c-18 8 -35 15 -37 16 -11 1 -45 41 -41 48 8
13 -53 78 -61 66 -12 -17 -50 -26 -58 -14 -3 5 -12 10 -18 10 -8 0 -7 -3 2 -9
9 -6 2 -10 -22 -13 -20 -2 -33 0 -31 4 3 4 1 8 -5 8 -5 0 -13 -4 -16 -10 -3
-5 -26 -10 -50 -10 -33 0 -47 5 -58 20 -13 19 -17 14 -48 -80 -19 -59 -36 -96
-40 -88 -15 29 -139 367 -139 380 0 7 -7 39 -15 71 l-15 57 39 59 c21 33 44
73 51 90 7 17 16 31 19 31 4 0 29 -31 55 -70z m715 32 c6 -15 29 -54 50 -86
l38 -57 -18 -71 c-11 -40 -19 -78 -19 -86 0 -11 -127 -352 -134 -360 -2 -1
-15 34 -29 79 -15 44 -43 108 -62 141 -38 65 -113 150 -125 143 -5 -3 -6 5 -4
17 2 13 2 17 -2 11 -3 -7 -15 -13 -27 -13 -21 1 -21 1 -4 11 11 6 24 12 30 13
29 4 196 168 244 239 18 26 37 47 42 47 5 0 14 -13 20 -28z m-549 -416 c0 -2
-7 -7 -16 -10 -8 -3 -12 -2 -9 4 6 10 25 14 25 6z m206 -81 c-3 -8 -1 -15 4
-15 6 0 10 -6 10 -14 0 -8 10 -22 22 -30 12 -9 17 -16 11 -16 -14 0 -63 61
-63 78 0 7 5 12 11 12 6 0 9 -7 5 -15z m-62 -134 c3 -4 -6 -6 -19 -3 -14 2
-25 6 -25 8 0 8 39 4 44 -5z m185 -726 c11 -22 20 -32 21 -22 0 9 5 17 11 17
5 0 8 -4 4 -9 -3 -5 -1 -12 5 -16 15 -9 12 -28 -2 -19 -7 4 -9 3 -5 -1 12 -14
36 -14 31 -1 -3 7 2 19 10 26 9 7 14 15 12 19 -2 3 14 18 35 34 l40 27 -16
-31 c-10 -19 -22 -29 -31 -25 -8 3 -14 -1 -14 -10 0 -9 5 -12 12 -8 7 4 8 3 4
-4 -4 -6 -13 -9 -21 -5 -10 3 -15 -1 -15 -12 0 -9 4 -13 10 -10 6 3 7 -1 4 -9
-3 -9 -10 -16 -16 -16 -5 0 -6 -4 -3 -10 3 -5 3 -10 -2 -10 -17 0 -121 124
-116 137 7 18 17 8 42 -42z"/>
<path d="M1430 1780 c-8 -5 -10 -10 -5 -10 6 0 17 5 25 10 8 5 11 10 5 10 -5
0 -17 -5 -25 -10z"/>
<path d="M1350 1554 c68 -28 160 -61 160 -58 0 8 -108 52 -141 58 -19 3 -27 3
-19 0z"/>
<path d="M1370 1440 c6 -11 16 -20 23 -19 9 0 9 2 -1 6 -6 2 -10 8 -7 13 3 4
-2 11 -10 14 -13 4 -14 2 -5 -14z"/>
<path d="M1505 1253 c22 -58 25 -155 4 -121 -6 8 -9 1 -8 -22 0 -27 2 -30 8
-16 5 13 10 16 14 9 4 -7 2 -23 -4 -36 -8 -19 -8 -29 1 -43 9 -16 11 -16 6 -2
-3 10 -1 20 4 23 24 15 2 225 -23 225 -5 0 -6 -8 -2 -17z"/>
<path d="M1481 1144 c0 -11 3 -14 6 -6 3 7 2 16 -1 19 -3 4 -6 -2 -5 -13z"/>
<path d="M1580 926 c0 -2 8 -10 18 -17 15 -13 16 -12 3 4 -13 16 -21 21 -21
13z"/>
</g>
</svg>
